<svg data-v-0dd9719b="" version="1.0" xmlns="http://www.w3.org/2000/svg" xmlns:xlink="http://www.w3.org/1999/xlink" width="100%" height="100%" viewBox="0 0 340.000000 250.000000" preserveAspectRatio="xMidYMid meet" color-interpolation-filters="sRGB" style="margin: auto;"> <rect data-v-0dd9719b="" x="0" y="0" width="100%" height="100%" fill="#fff" fill-opacity="1" class="background"></rect> <rect data-v-0dd9719b="" x="0" y="0" width="100%" height="100%" fill="url(#watermark)" fill-opacity="1" class="watermarklayer"></rect> <g data-v-0dd9719b="" fill="#333" class="icon-text-wrapper icon-svg-group iconsvg" transform="translate(46.5,94.96816444396973)"><g class="iconsvg-imagesvg" transform="translate(0,0)"><g><rect fill="#333" fill-opacity="0" stroke-width="2" x="0" y="0" width="60" height="60.06366748753678" class="image-rect"></rect> <svg x="0" y="0" width="60" height="60.06366748753678" filtersec="colorsb6741407970" class="image-svg-svg primary" style="overflow: visible;"><svg xmlns="http://www.w3.org/2000/svg" viewBox="0.010584813542664051 -0.1349988430738449 94.61941528320312 94.72000122070312"><path d="M90.84 47.7A42.27 42.27 0 0 0 54 5.82c21.33 25.32 27.15 50.44 20.2 75.41A42.31 42.31 0 0 0 90.84 47.7z" fill="#00b7c9"></path><path d="M58.36 22.66c8.91 24.83 3 47.77-12 67.2.7 0 1.4.07 2.1.07a41.73 41.73 0 0 0 17-3.58c6.02-18.35 4.9-38.72-7.1-63.69zM40.05 46.72c2.11-3.93 4-8 5.75-12.21 4.07-9.19 5.9-19 6.88-28.9a41 41 0 0 0-4.14-.21A42.26 42.26 0 0 0 19 77.93c1.89-2.38 3.86-4.7 5.68-7.15a177.81 177.81 0 0 0 15.37-24.06z" fill="#00ac67"></path><path d="M27.71 84.45a42.85 42.85 0 0 0 10.94 4.28c8.56-11 13.75-25 14.24-43.56-2.39 17.68-11.57 30.52-25.18 39.28z" fill="#00ac67"></path><path d="M47.42 92c-23.78 0-43-21-43.07-44.75s19.29-44 43.07-44c22.66.07 45.17 18.73 47.21 40.89a47.36 47.36 0 1 0 0 6.17C92.73 72.53 70.15 92 47.42 92z" fill="#00b7c9"></path></svg></svg> <!----></g></g> <g transform="translate(67,16.801836013793945)"><g data-gra="path-name" fill-rule="" class="tp-name iconsvg-namesvg"><g transform="scale(1)"><g><path d="M2.81-26.46L0 0 3.79 0 5.05-11.86 16.15-11.86 14.89 0 18.64 0 21.45-26.46 17.66-26.46 16.55-15.57 5.41-15.57 6.56-26.46 2.81-26.46ZM47.08 0L42.94 0 41.03-6.78 28.98-6.78 25.67 0 21.45 0 34.46-26.46 39.66-26.46 47.08 0ZM36.63-22.42L30.79-10.49 39.98-10.49 36.63-22.42ZM49.89-26.46L68.53-26.46 66.8-10.35 62.87-10.35 66.48 0 62.66 0 59.09-10.35 51.95-10.35 50.87 0 47.08 0 49.89-26.46ZM52.35-14.06L63.45-14.06 64.39-22.75 53.25-22.75 52.35-14.06ZM71.31-26.46L68.53 0 87.89 0 90.16-21.49 85.73-26.46 71.31-26.46ZM72.71-3.71L74.73-22.75 84-22.75 85.15-21.45 86.23-20.26 84.5-3.71 72.71-3.71ZM92.97-26.46L90.16 0 93.95 0 95.21-11.86 106.31-11.86 105.05 0 108.8 0 111.61-26.46 107.83-26.46 106.71-15.57 95.57-15.57 96.72-26.46 92.97-26.46ZM114.42-26.46L111.61 0 129.46 0 130.72-3.71 115.76-3.71 116.7-12.11 129.39-12.11 129.78-15.86 117.06-15.86 117.78-22.75 132.34-22.75 132.74-26.46 114.42-26.46ZM158.37 0L154.22 0 152.31-6.78 140.27-6.78 136.96 0 132.74 0 145.75-26.46 150.94-26.46 158.37 0ZM147.92-22.42L142.07-10.49 151.27-10.49 147.92-22.42ZM161.15-26.46L158.37 0 177.73 0 180-21.49 175.57-26.46 161.15-26.46ZM162.55-3.71L164.57-22.75 173.84-22.75 174.99-21.45 176.07-20.26 174.34-3.71 162.55-3.71Z" transform="translate(0, 26.459999084472656)"></path></g> <!----> <!----> <!----> <!----> <!----> <!----> <!----></g></g> <!----></g></g><defs v-gra="od"></defs></svg>